<svg version="1.1" id="Layer_1" xmlns="http://www.w3.org/2000/svg" xmlns:xlink="http://www.w3.org/1999/xlink" x="0px" y="0px"
	 width="100%" viewBox="0 0 512 512" enable-background="new 0 0 512 512" xml:space="preserve">
<path fill="#000000" opacity="1.000000" stroke="none" 
	d="
M1.219995,484.280640 
	C1.000000,335.979095 1.000000,187.958206 1.000000,39.468658 
	C10.578362,24.268930 22.103998,11.535204 37.771244,3.017371 
	C39.566078,2.041571 41.426014,1.527475 43.718338,1.220523 
	C184.354233,1.000000 324.708466,1.000000 465.531342,1.000000 
	C474.071289,3.708813 480.455719,9.092211 486.645050,14.571671 
	C496.293701,23.113676 503.752747,33.520836 510.678650,44.322964 
	C511.710083,45.931694 511.847321,47.765785 512.779602,49.717594 
	C513.000000,192.354233 513.000000,334.708466 513.000000,477.531342 
	C506.054932,491.750122 495.041992,501.891998 483.314362,511.384613 
	C482.284729,512.218018 480.856232,512.304993 479.279327,512.780273 
	C330.979095,513.000000 182.958206,513.000000 34.468658,513.000000 
	C24.001274,509.853912 16.372374,503.278107 9.802661,495.518097 
	C6.856904,492.038574 2.697075,489.362244 1.219995,484.280640 
z"/>
<path fill="#FFFFFF" opacity="1.000000" stroke="none" 
	d="
M513.000000,49.531342 
	C510.215759,47.544640 509.138214,43.956821 507.080231,41.001812 
	C499.258240,29.770267 491.078033,19.088327 479.880371,10.718083 
	C475.440826,7.399491 470.505646,5.051124 466.092529,1.347223 
	C480.599518,1.000000 495.200287,1.100119 509.797424,0.913516 
	C512.635803,0.877231 513.105225,1.575104 513.076416,4.269558 
	C512.916931,19.199169 513.000000,34.131371 513.000000,49.531342 
z"/>
<path fill="#FFFFFF" opacity="1.000000" stroke="none" 
	d="
M43.531342,1.000000 
	C29.443407,7.573669 18.368757,18.357462 8.166811,30.294476 
	C5.822296,33.037731 4.634213,36.602638 1.342507,38.920662 
	C1.000000,27.230951 1.098653,15.460404 0.919965,3.694069 
	C0.882497,1.226892 1.547207,0.919430 3.777824,0.940172 
	C16.871830,1.061927 29.967545,1.000000 43.531342,1.000000 
z"/>
<path fill="#FFFFFF" opacity="1.000000" stroke="none" 
	d="
M479.468658,513.000000 
	C486.282593,507.835327 492.455719,501.529602 498.821960,495.291443 
	C504.182678,490.038666 507.387360,483.539246 512.644897,478.100647 
	C513.000000,488.764160 512.900269,499.529999 513.076538,510.291260 
	C513.116089,512.708862 512.520142,513.098755 510.241608,513.064941 
	C500.142090,512.915039 490.039062,513.000000 479.468658,513.000000 
z"/>
<path fill="#FFFFFF" opacity="1.000000" stroke="none" 
	d="
M1.000000,484.468658 
	C4.007879,488.228271 7.944799,491.638092 11.312698,495.562653 
	C17.476652,502.745453 24.992525,508.488007 33.903076,512.648560 
	C23.905626,513.000000 13.809508,512.899231 3.718159,513.073975 
	C1.333422,513.115295 0.884812,512.565247 0.931949,510.254608 
	C1.104045,501.818573 1.000000,493.376862 1.000000,484.468658 
z"/>
<path fill="#6D12CA" opacity="1.000000" stroke="none" 
	d="
M240.240845,217.269012 
	C243.902756,200.794754 247.631546,184.763214 250.958374,168.648712 
	C251.833755,164.408569 253.153046,162.592621 257.898743,162.738525 
	C270.385071,163.122391 282.895203,163.052383 295.386810,162.766724 
	C299.660095,162.668991 300.999176,163.654785 301.030945,168.185822 
	C301.199127,192.175797 301.754272,216.163223 302.224823,240.150558 
	C302.255463,241.711182 301.725525,243.446732 303.571899,245.522781 
	C305.813110,235.536453 307.946655,226.125793 310.034607,216.705032 
	C313.739655,199.987640 317.467072,183.274841 321.056519,166.532562 
	C321.651947,163.755280 322.803741,162.762192 325.725128,162.800034 
	C338.221161,162.961975 350.722260,162.985901 363.217529,162.796463 
	C366.907471,162.740509 367.210724,163.935379 366.489319,167.172394 
	C353.254700,226.558670 340.099915,285.962830 327.061493,345.392456 
	C326.410431,348.359985 325.220123,349.082001 322.422333,349.055450 
	C309.592072,348.933624 296.758636,348.900024 283.929565,349.074005 
	C280.756134,349.117035 280.089478,348.015930 280.015137,345.063171 
	C279.306671,316.918610 278.445709,288.777893 277.622375,260.423218 
	C276.177765,261.614899 276.161438,263.274780 275.816956,264.826294 
	C269.907440,291.439972 263.874969,318.027191 258.168671,344.684235 
	C257.389587,348.323761 256.017914,349.130676 252.606461,349.076996 
	C240.444626,348.885590 228.274994,348.851471 216.114777,349.088501 
	C212.160660,349.165619 211.145966,348.396484 212.078171,344.265533 
	C221.482483,302.591156 230.692978,260.873077 239.952072,219.165955 
	C240.060028,218.679642 240.090714,218.176178 240.240845,217.269012 
z"/>
<path fill="#FFFFFF" opacity="1.000000" stroke="none" 
	d="
M472.999908,328.856506 
	C470.890961,344.964111 471.452026,360.878357 467.109833,376.288849 
	C462.660950,392.078033 453.959290,404.924255 442.176239,415.997894 
	C435.095154,422.652710 427.312958,428.494446 418.240662,431.760010 
	C410.438599,434.568420 402.380188,437.197510 393.777527,437.043610 
	C383.450562,436.858856 373.116791,437.085571 362.787689,436.973816 
	C353.918213,436.877869 347.925934,432.184509 343.309448,424.888519 
	C339.329620,418.598724 339.196381,412.169952 340.981110,405.314667 
	C343.400940,396.019958 353.571777,388.033417 363.264526,388.006531 
	C373.594727,387.977875 383.944763,387.615387 394.248138,388.142090 
	C400.587646,388.466156 406.061737,386.746063 411.508057,384.061188 
	C418.189575,380.767426 421.122162,374.456909 423.920868,368.223877 
	C426.230011,363.081177 425.932343,357.432495 426.079681,351.856812 
	C426.388275,340.177063 426.952240,328.385101 428.413239,316.905060 
	C430.228546,302.640656 445.921997,292.026398 460.385986,299.542725 
	C467.485626,303.232147 472.829285,310.602600 472.992218,319.878601 
	C473.041962,322.710236 472.999908,325.543488 472.999908,328.856506 
z"/>
<path fill="#FFFFFF" opacity="1.000000" stroke="none" 
	d="
M53.238258,122.359673 
	C60.580669,111.170715 68.470917,101.228493 79.438744,93.613083 
	C88.218170,87.517159 97.196640,83.264458 107.641953,80.748825 
	C121.313438,77.456215 134.932205,80.093956 148.513565,78.986786 
	C152.815598,78.636086 156.763367,79.507523 160.755249,81.218056 
	C166.651306,83.744522 170.078720,88.220490 171.980957,94.003143 
	C173.647629,99.069656 174.734940,104.112007 173.106033,109.643059 
	C170.405502,118.812836 160.415543,126.964264 150.805466,126.992531 
	C139.974640,127.024399 129.128723,127.352226 118.317200,126.894447 
	C108.727524,126.488411 100.966026,130.045532 94.884193,136.848022 
	C90.979996,141.214859 88.303856,146.899841 88.157608,152.869949 
	C87.999718,159.314972 87.052979,165.672638 86.831383,172.110931 
	C86.501350,181.699585 85.693443,191.374863 83.885094,200.781876 
	C81.894951,211.134659 68.569641,221.276596 55.989059,216.800262 
	C48.147644,214.010193 43.093418,207.689301 40.998878,199.361588 
	C38.774834,190.518982 41.010574,181.863266 41.901951,173.128555 
	C42.350975,168.728531 42.714298,164.249588 42.808907,159.880524 
	C43.072449,147.709808 47.693325,136.771652 51.201653,125.494064 
	C51.535812,124.419899 53.083527,124.055931 53.238258,122.359673 
z"/>
<path fill="#6D12CA" opacity="1.000000" stroke="none" 
	d="
M169.955826,231.849670 
	C174.715317,210.176758 179.457184,188.928925 184.040070,167.646881 
	C184.764114,164.284531 185.821945,162.648102 189.783493,162.752991 
	C201.769562,163.070312 213.772736,163.028992 225.761932,162.777588 
	C229.780716,162.693314 230.507462,163.851212 229.670227,167.591660 
	C219.143753,214.620407 208.726868,261.673706 198.290451,308.722565 
	C195.591461,320.890076 192.876709,333.054443 190.278519,345.243561 
	C189.786011,347.554169 189.405106,349.118469 186.352737,349.076935 
	C173.361160,348.899963 160.365479,348.955780 147.372025,349.039886 
	C144.726959,349.056976 144.042740,348.556915 144.693939,345.659180 
	C153.183670,307.881378 161.514740,270.067963 169.955826,231.849670 
z"/>
</svg>