<svg xmlns="http://www.w3.org/2000/svg" xmlns:xlink="http://www.w3.org/1999/xlink" width="40" zoomAndPan="magnify" viewBox="0 0 30 30.000001" height="40" preserveAspectRatio="xMidYMid meet" version="1.0"><path fill="#b042ff" d="M 11.046875 26.007812 L 11.046875 21.941406 C 11.046875 20.902344 11.898438 20.058594 12.945312 20.058594 L 16.785156 20.058594 C 17.289062 20.058594 17.773438 20.257812 18.128906 20.609375 C 18.484375 20.964844 18.6875 21.441406 18.6875 21.941406 L 18.6875 26.007812 C 18.683594 26.441406 18.855469 26.855469 19.160156 27.164062 C 19.46875 27.46875 19.886719 27.640625 20.324219 27.640625 L 22.941406 27.640625 C 24.164062 27.644531 25.339844 27.167969 26.203125 26.3125 C 27.070312 25.457031 27.558594 24.296875 27.558594 23.085938 L 27.558594 11.496094 C 27.558594 10.519531 27.121094 9.59375 26.363281 8.964844 L 17.453125 1.929688 C 15.90625 0.695312 13.683594 0.734375 12.183594 2.023438 L 3.476562 8.964844 C 2.683594 9.574219 2.210938 10.503906 2.1875 11.496094 L 2.1875 23.074219 C 2.1875 25.597656 4.253906 27.640625 6.800781 27.640625 L 9.359375 27.640625 C 10.265625 27.640625 11.003906 26.917969 11.011719 26.019531 Z M 11.046875 26.007812 " fill-opacity="1" fill-rule="nonzero"/></svg>