<svg xmlns="http://www.w3.org/2000/svg" xmlns:xlink="http://www.w3.org/1999/xlink" width="40" zoomAndPan="magnify" viewBox="0 0 30 30.000001" height="40" preserveAspectRatio="xMidYMid meet" version="1.0"><path fill="#b042ff" d="M 2.566406 14.480469 C 2.566406 7.949219 7.820312 2.0625 15.074219 2.0625 C 22.164062 2.0625 27.53125 7.835938 27.53125 14.441406 C 27.53125 22.105469 21.238281 26.859375 15.046875 26.859375 C 13 26.859375 10.730469 26.3125 8.90625 25.246094 C 8.269531 24.859375 7.734375 24.574219 7.046875 24.796875 L 4.527344 25.542969 C 3.890625 25.742188 3.316406 25.246094 3.503906 24.574219 L 4.339844 21.792969 C 4.476562 21.410156 4.449219 21 4.25 20.675781 C 3.175781 18.714844 2.566406 16.566406 2.566406 14.480469 Z M 13.425781 14.480469 C 13.425781 15.359375 14.136719 16.070312 15.023438 16.082031 C 15.910156 16.082031 16.621094 15.359375 16.621094 14.492188 C 16.621094 13.609375 15.910156 12.902344 15.023438 12.902344 C 14.148438 12.890625 13.425781 13.609375 13.425781 14.480469 Z M 19.179688 14.492188 C 19.179688 15.359375 19.890625 16.082031 20.777344 16.082031 C 21.664062 16.082031 22.375 15.359375 22.375 14.492188 C 22.375 13.609375 21.664062 12.902344 20.777344 12.902344 C 19.890625 12.902344 19.179688 13.609375 19.179688 14.492188 Z M 9.269531 16.082031 C 8.394531 16.082031 7.671875 15.359375 7.671875 14.492188 C 7.671875 13.609375 8.382812 12.902344 9.269531 12.902344 C 10.15625 12.902344 10.867188 13.609375 10.867188 14.492188 C 10.867188 15.359375 10.15625 16.070312 9.269531 16.082031 Z M 9.269531 16.082031 " fill-opacity="1" fill-rule="evenodd"/></svg>