<?xml version="1.0" encoding="utf-8"?>
<svg viewBox="0 0 190 190" xmlns="http://www.w3.org/2000/svg">
  <defs>
    <clipPath id="clip0_1245_24578">
      <rect width="360" height="257" fill="white" transform="translate(0 0.666626)"/>
    </clipPath>
    <clipPath id="clip0_1227_30814">
      <rect width="360" height="257" fill="white" transform="translate(0 0.666626)"/>
    </clipPath>
    <linearGradient gradientUnits="userSpaceOnUse" x1="93.072" y1="22.567" x2="93.072" y2="163.567" id="gradient-0">
      <stop offset="0" style="stop-color: rgba(176, 66, 255, 1)"/>
      <stop offset="1" style="stop-color: rgba(128, 0, 219, 1)"/>
    </linearGradient>
  </defs>
  <g clip-path="url(#clip0_1245_24578)" transform="matrix(1, 0, 0, 1, 3.481576, -0.69063)">
    <g clip-path="url(#clip0_1227_30814)" transform="matrix(1, 0, 0, 1, -0.257092, 3.514367)">
      <circle cx="93.072" cy="93.067" r="70.5" style="fill: url(#gradient-0);"/>
      <circle cx="176.039" cy="30.067" r="7.5" style="fill: rgb(193, 117, 255);" transform="matrix(0, -1, 1, 0, 145.972015, 206.106018)"/>
      <circle cx="17.605" cy="12.567" r="10" style="fill: rgb(193, 117, 255);"/>
      <circle cx="7.605" cy="135.567" r="5" style="fill: rgb(193, 117, 255);"/>
      <circle cx="163.105" cy="163.067" r="2.5" style="fill: rgb(193, 117, 255);"/>
      <path fill-rule="evenodd" clip-rule="evenodd" d="M 92.403 117.438 C 92.675 117.58 92.98 117.653 93.284 117.65 C 93.589 117.648 93.891 117.573 94.165 117.429 L 102.936 112.74 C 105.423 111.414 107.371 109.931 108.891 108.205 C 112.195 104.445 113.999 99.645 113.967 94.696 L 113.863 78.371 C 113.853 76.491 112.618 74.813 110.791 74.203 L 94.475 68.729 C 93.492 68.396 92.415 68.403 91.45 68.746 L 75.195 74.416 C 73.379 75.05 72.166 76.739 72.176 78.622 L 72.28 94.935 C 72.312 99.891 74.178 104.669 77.536 108.391 C 79.071 110.093 81.036 111.554 83.55 112.858 L 92.403 117.438 Z M 90.081 98.252 C 90.447 98.604 90.923 98.777 91.398 98.773 C 91.873 98.77 92.346 98.592 92.707 98.235 L 102.292 88.785 C 103.012 88.074 103.005 86.931 102.277 86.23 C 101.547 85.528 100.372 85.533 99.651 86.244 L 91.371 94.407 L 87.98 91.148 C 87.25 90.446 86.077 90.453 85.354 91.165 C 84.634 91.876 84.641 93.018 85.371 93.72 L 90.081 98.252 Z" fill="white"/>
      <circle cx="104.105" cy="7.067" r="2.5" style="fill: rgb(193, 117, 255);"/>
      <circle cx="60.105" cy="179.067" r="3.5" style="fill: rgb(193, 117, 255);"/>
      <circle cx="119.605" cy="173.567" r="1" style="fill: rgb(193, 117, 255);"/>
      <circle cx="168.105" cy="113.067" r="2.5" style="fill: rgb(193, 117, 255);"/>
      <circle cx="-1.395" cy="77.567" r="1" fill="#FF94A4"/>
    </g>
  </g>
</svg>