<?xml version="1.0" encoding="utf-8"?>
<svg viewBox="0 0 17 17" xmlns="http://www.w3.org/2000/svg">
  <path fill-rule="evenodd" clip-rule="evenodd" d="M 4.647 0.147 L 12.422 0.147 C 15.255 0.147 16.872 1.747 16.872 4.589 L 16.872 12.372 C 16.872 15.197 15.263 16.814 12.43 16.814 L 4.647 16.814 C 1.805 16.814 0.205 15.197 0.205 12.372 L 0.205 4.589 C 0.205 1.747 1.805 0.147 4.647 0.147 Z M 9.222 9.172 L 11.588 9.172 C 11.972 9.164 12.28 8.855 12.28 8.472 C 12.28 8.089 11.972 7.78 11.588 7.78 L 9.222 7.78 L 9.222 5.43 C 9.222 5.047 8.913 4.739 8.53 4.739 C 8.147 4.739 7.838 5.047 7.838 5.43 L 7.838 7.78 L 5.48 7.78 C 5.297 7.78 5.122 7.855 4.988 7.98 C 4.863 8.114 4.788 8.288 4.788 8.472 C 4.788 8.855 5.097 9.164 5.48 9.172 L 7.838 9.172 L 7.838 11.53 C 7.838 11.914 8.147 12.222 8.53 12.222 C 8.913 12.222 9.222 11.914 9.222 11.53 L 9.222 9.172 Z" style="fill: rgb(176, 66, 255);"/>
</svg>